<?xml version='1.0' encoding='utf-8'?>
<svg xmlns="http://www.w3.org/2000/svg" enable-background="new 0 0 5000 915.7574" version="1.1" viewBox="0 0 5e3 915.76"> <path d="m177.14 392.24h-177.14v-391.88h393.16v175.96h144.85v-176.31h394.18v355.4h320.69v-140.43h-175.65v-212.91h212.83v173.95h143.83v-174.53h2132.4v174.26h143.83v-174.02h214.23v212.2h-177.22v141.49h320.98v-355.29h394v175.75h145.13v-175.4h392.72v391.32h-175.54v132.19h175.54v391.32h-392.72v-175.4h-145.13v175.75h-394v-355.29h-320.98v141.49h177.22v212.2h-214.23v-174.02h-143.83v174.26h-2132.4v-174.53h-143.83v173.95h-212.83v-212.91h175.65v-140.43h-320.69v355.4h-394.18v-176.31h-144.85v175.96h-393.16v-391.88h177.14v-131.28zm4249.4-0.2234h-175.32v-215.34h173.85v-141.4h-320.63v355.82h-394.94v-177.87h-178.29v-174.62h-2063v175.94h-177.83v176.47h-395.13v-355.89h-319.18v142.94h173.89v214.2h-175.67v131.22h175.67v214.2h-173.89v142.94h319.18v-355.89h395.13v176.47h177.83v175.94h2063v-174.62h178.29v-177.87h394.94v355.82h320.63v-141.4h-173.85v-215.34h175.32v-131.73zm218.11-213.82h179.31v177.84h139.38c4.6504-30.015 3.4995-304.59-1.0537-320.62h-317.64v142.79zm0 702.15h317.64c4.5532-16.032 5.7041-290.61 1.0537-320.62h-139.38v177.84h-179.31v142.79zm-4288.9-844.77h-318.98v319.91h142.5v-179.13h176.48v-140.78zm0 703.83h-176.48v-179.13h-142.5v319.91h318.98v-140.78zm4107.9-524.26v140.23h143.22v-140.23h-143.22zm143.22 485.47v-140.23h-143.22v140.23h143.22zm0.0767-306.59h-143.77v127.71h143.77v-127.71zm-4212.9-38.149h142.95v-140.46h-142.95v140.46zm0 344.47h142.95v-140.46h-142.95v140.46zm142.96-306.6h-142.96v128.26h142.96v-128.26zm4246.4-178.22h-138.21c-4.1362 41.174-2.792 124.22 2.022 140.34h136.19v-140.34zm0 344.36h-136.19c-4.814 16.126-6.1582 99.169-2.022 140.34h138.21v-140.34zm-0.5463-166.68h-138.05v129.34h138.05v-129.34zm-357.82-37.307v-140.21h-138.37v140.21h138.37zm-138.37 203.95v140.21h138.37v-140.21h-138.37zm-397.73-383.47c0-25.259 0.4592-48.23-0.1282-71.174-0.5969-23.323 2.6377-46.893-2.0667-69.715h-139.24v140.89h141.44zm-141.44 562.98v140.89h139.24c4.7043-22.822 1.4697-46.393 2.0667-69.715 0.5874-22.944 0.1282-45.915 0.1282-71.174h-141.44zm-2494-703.76h-140.87v140.25h140.87v-140.25zm0 704.29h-140.87v140.25h140.87v-140.25zm-897.85-384.02v-140.48h-137.3v140.48h137.3zm-137.3 203.99v140.48h137.3v-140.48h-137.3zm137.38-166.19h-137.56v128.4h137.56v-128.4zm220.18-38.215h137.23v-140.49h-137.23v140.49zm0 345.31h137.23v-140.49h-137.23v140.49z" fill="#ffffff33"/> </svg>