<?xml version="1.0" encoding="UTF-8" standalone="no"?>
<!-- Generator: Adobe Illustrator 18.1.1, SVG Export Plug-In . SVG Version: 6.00 Build 0)  -->

<svg
   version="1.1"
   id="Layer_1"
   x="0px"
   y="0px"
   viewBox="0 0 2690 2690"
   xml:space="preserve"
   fill="#15803d"
   xmlns="http://www.w3.org/2000/svg"
   xmlns:svg="http://www.w3.org/2000/svg"><defs
   id="defs1" />
<g
   id="g1"
   transform="matrix(-1,0,0,1,2689.9,0)">
	<path
   d="m 2690,2624.9 c 0,-28.8 -3.3,-32.7 -32.4,-36.3 -2.5,-132.2 -5,-264.6 -7.4,-397 3.5,-1.2 7.3,-1.6 9.8,-3.6 6.1,-4.8 16.1,-10.2 16.3,-15.8 0.3,-6.6 -8,-19.7 -12.3,-19.5 -23.7,0.8 -39.7,-24.2 -64.9,-17.5 -5.7,1.5 -13.2,-3.7 -19.9,-5.9 2.2,-6.7 3,-14.4 6.9,-20 33,-47.5 49.9,-128.2 -10.2,-180 -16.1,-13.9 -32,-28.5 -49,-41.2 -0.8,-1 -0.6,-1.8 -0.7,-2.8 -3,-11.4 -15,-13.4 -24,-14.9 -1.1,-0.2 -2.2,-0.3 -3.2,-0.5 -27.2,-17.6 -40.9,-44.4 -56.6,-71.5 -5.8,12.4 -10.8,23.7 -16.5,34.7 -8,15.5 -19,27.9 -31.2,39 -1.4,1.2 -2.9,2.2 -5,2.9 -7.4,2.9 -18.4,4.9 -18.6,14.5 -0.1,1.1 -0.8,2.1 -2.3,3.2 -10.4,7.6 -21,15.1 -31,23 -54.5,43.2 -71.2,98.7 -44.3,162.9 6.2,14.8 17.2,27.6 24.2,42.1 2.4,4.9 -0.5,17.9 -1.3,17.9 -26.9,0.7 -48.1,16.3 -71.8,25.1 -9.1,3.4 -15.7,3.3 -16.8,14.9 -1.2,12.4 5.2,16 15.2,19.6 5.6,2 13.2,8.8 13.3,13.7 2.2,69.4 3.5,138.7 4.3,208.1 0,3.5 -5.1,9.3 -8.6,10.1 -19.7,4.4 -39.6,9 -59.7,10.7 -14.8,1.2 -28.1,0.7 -25.3,20.9 -18.4,-1.5 -35.4,-0.3 -50.5,-5 -11,-3.4 -28.6,-3 -29,-23.1 -0.4,-20.5 -3.2,-40.9 -3.7,-61.3 -0.3,-13.2 -5.1,-18.4 -18.5,-17.9 -20.8,0.8 -41.7,0.2 -64.4,0.2 0,-61.3 0.3,-125.1 -0.2,-188.9 -0.1,-14.2 3.5,-21.3 19,-22.2 14.1,-0.8 28.3,-4 41.8,-8.1 5.5,-1.7 13.1,-8.6 13.3,-13.5 3,-50.8 4.6,-101.7 6.7,-154.1 -34.5,-4.8 -65.6,-9.2 -97.2,-13.6 0,-26.4 0.5,-49.8 -0.1,-73.1 -0.6,-23.9 -2.7,-47.8 -3.1,-71.8 -0.1,-2.5 -0.1,-4.9 0.1,-7.2 0.2,-2.3 0.7,-4.4 1.7,-6.3 1.8,-2.4 4,-4.3 6.4,-5.9 2.4,-1.6 4.9,-3 7.4,-4.3 18.5,-11.5 30.5,-32.5 47.5,-47.5 2,-3 3.5,-6 5,-9 1.5,-3 3.1,-5.9 5.2,-8.8 1.3,-2.2 2.5,-4.4 3.7,-6.7 2.3,-4.5 4.2,-9.2 5.7,-13.9 1,-3.2 1.9,-6.3 2.5,-9.6 11.7,-43.4 -10.7,-82 -44.7,-105.1 -3.1,-2.1 -6.3,-4.1 -9.5,-5.9 -17.8,-8.2 -37,-15 -53.9,-25.6 -0.5,-0.9 0.2,-1.6 0.3,-2.6 0.7,-12.7 -15.3,-13.7 -24.3,-18.1 -0.9,-1.2 -1.8,-2.4 -2.7,-3.6 -5.2,-7.3 -9.6,-15.1 -13.2,-22.9 -4.5,-10.5 -8.5,-21 -12.9,-31.3 -0.6,-1.3 -1.1,-2.6 -1.7,-3.8 -0.6,-1.3 -1.2,-2.5 -1.8,-3.8 11.4,-13.1 16.4,-34.1 -1.1,-44.3 -0.9,-0.5 -2.5,0.5 -2.6,-1.1 -0.4,-6.4 -1,-12.9 0.9,-18.4 0.4,-2.9 0.9,-5.9 1.3,-8.8 1.9,-11.8 3.8,-23.5 2.9,-35 -2.8,-34.8 -9.1,-69.4 -13.9,-104.1 -16.9,32.7 -23.8,77.3 -18.9,117.5 0.4,3.7 1,7.3 1.7,10.9 1.8,12.5 8.9,24.1 11.4,36.1 0.2,1.2 -0.1,0 -0.4,0 -11.9,2.2 -18.9,13.2 -19.9,24.2 0,10 7,17 14.1,23.1 -0.7,1.3 -1.5,2.7 -2.3,4.1 -3.3,5.7 -7,11.4 -10.5,17.2 -1.8,3.2 -3.6,6.3 -5.5,9.4 -7.2,12.4 -14.5,24.5 -22.7,35.7 -0.9,1.2 -1.9,2.4 -3.1,2.9 -10,2.6 -23,1.6 -28,12.6 -2,5 5,7 5.2,12.4 -1,0.8 -1.9,1.6 -2.9,2.3 -1,0.7 -2,1.5 -3.1,2.2 -4.1,3 -9.1,5 -13.1,8.5 -2.3,1.3 -4.7,2.5 -7.2,3.7 -2.5,1.2 -5.1,2.3 -7.7,3.4 -55.4,22.5 -73.6,79.3 -47.7,128.8 1.7,3.3 3.7,6.6 5.9,9.8 3.9,5.7 8.4,11 13.2,15.9 2.4,2.5 4.9,4.9 7.5,7.2 3,2.7 6.2,5.1 9.5,7.3 1.6,1.1 3.1,2.5 4.6,3.7 4,4.6 10,6.6 14.6,10.4 1.5,1.3 3,2.8 4.3,4.3 1.4,1.5 2.7,3.1 4,4.9 11,16 10,35 10.9,53.6 0,3.2 0,6.5 0,9.7 0,35.6 0,71.1 -0.4,106.6 -0.1,4.7 -4.8,12.6 -8.6,13.4 -15.1,3.2 -30.6,4.1 -48.7,6.2 0,-40.4 -0.3,-77.3 0.4,-114.2 0,-2.4 1.1,-5.3 2.6,-7.8 3.8,-6.6 11.8,-10.6 17.6,-15.5 1.8,-1.6 3.4,-3.3 4.9,-5.1 2.2,-2.7 4.1,-5.5 5.5,-8.7 5.8,-17.3 -10.2,-29.3 -24,-35.5 -3.1,-1.6 -6.3,-3.1 -9.4,-4.6 -6.2,-3 -12,-5.7 -16.4,-8.6 -3,-1.4 -6,-2.8 -9.1,-4.2 -15.2,-6.8 -31,-12.5 -46.4,-17.6 0.4,-2.6 -0.3,-6 1.1,-7.8 23.5,-31 37.1,-65.7 42,-104.4 4.8,-37.7 -2.1,-72.3 -21.9,-104.6 -24.7,-40.4 -65.8,-62.4 -101.5,-90.5 -0.7,-1.1 0.9,-1.9 1.6,-3.2 3.6,-13.3 -14.4,-15.3 -23,-17.4 -1.8,-0.4 -3.3,-1.1 -4.5,-2.2 -15.6,-14.8 -33.2,-28 -46.2,-44.8 -4,-5.2 -7.4,-10.9 -10.5,-16.9 -1,-2 -2,-4 -3,-6.1 -5.3,-11.8 -8.3,-23.8 -13.3,-35.8 -11,38 -28,78 -62,101.2 -1.3,1.1 -2.6,2.1 -3.9,3.1 -9.1,4.7 -19.1,2.7 -28.1,7.7 -7,4 -8,11 -4,17 -1,1 -3,1 -3.9,2.4 -1.3,1 -2.7,2 -4,3 -6.7,4.9 -13.4,9.9 -20.1,14.9 -38,29 -68.8,63.8 -85.1,104 -58.8,-29 -116.4,-57.6 -174.2,-86 -18.7,-9.2 -37.4,-16.7 -59.2,-17.2 -13.2,-0.3 -29.7,-4.3 -38.8,-13 -23.3,-22.1 -44.4,-46.7 -65.1,-71.4 -1.6,-1.9 -3.2,-3.8 -4.8,-5.7 12.1,-17.1 17.1,-41.1 -1.1,-55.6 -2.9,-2.3 -6.1,-2.5 -7.3,-4.6 -1.3,-2.1 -1.9,-4 -1.9,-6 0,-1.3 0.3,-2.6 0.8,-4 6.6,-4.9 11.6,-10.9 14.3,-19.4 0.7,-1.9 1.1,-3.8 1.2,-5.7 0.1,-1.9 -0.1,-3.9 -0.7,-5.9 -8.4,-22 -9.9,-7.5 -27.4,-63 0.9,30.7 -7.4,38.7 -16.1,52.2 -0.8,1.2 -1.6,2.5 -2.4,3.8 -0.7,1.3 -1.4,2.6 -2.1,3.9 -0.6,1.3 -1.3,2.6 -2.2,3.8 -1.1,2.3 -1.8,4.6 -1.7,6.9 0.1,9 10.2,18 16.1,27.2 -1.4,1.1 -2.7,2.1 -3.9,3.1 -1.3,1 -2.5,1.8 -3.8,2.5 -22.9,10.5 -26.9,45.5 -5,60.2 -0.4,-0.2 0.8,-2.5 -0.3,-1.5 -21.1,22.4 -42.8,45.5 -64.5,68.4 -13.8,14.6 -31.4,18 -50.9,20.9 -26.9,4 -54.3,9 -78.2,24.5 -12.7,8.3 -26.4,15.7 -40.6,21 -40.7,15.2 -80.7,31.9 -113.3,61.3 -70.9,63.7 -120.8,139.4 -134.4,236.4 -8.5,60.8 -3.2,120.2 17,177 10.7,30 31.9,56.2 48,84.3 2.6,4.6 6.1,13.2 4.3,15.1 -9.3,9.3 -19.6,17.9 -30.8,24.9 -52.5,33.1 -82.8,64.8 -67.7,133.6 4,18.1 15.8,34.4 23.4,51.8 1.8,4.2 3.3,11.1 1.2,14 -2.5,3.4 -9.1,5.4 -13.9,5.3 -34.2,-0.2 -51,8.5 -50.4,34.9 6.3,7.7 14.7,13.3 15.2,19.4 1.4,17 -0.1,34.3 -1.5,51.4 -0.3,3.5 -5,8.3 -8.6,9.5 -11.4,3.8 -23.1,7.5 -35,8.7 -34.5,3.5 -69.1,6.2 -103.7,8.5 -33.1,2.2 -66.3,3.4 -102.4,5.1 -0.4,-8.2 -0.7,-17.4 -1.5,-26.5 -0.5,-5.1 -0.7,-13.8 -3.2,-14.7 -19.8,-7 -39.9,-13.1 -60.3,-18.2 -14.3,-3.6 -29.1,-5.1 -43.7,-7.6 0,105.9 0,211.8 0,317.7 h 2690 c 0.1,-22.5 0.1,-45.2 0.1,-67.9 z M 1387.6,2243.4 c -10.2,-0.6 -20.4,-0.1 -33.5,-0.1 0,-7.3 -0.1,-14.3 -0.1,-21.1 0,-6.8 0,-13.5 0.1,-20.1 1.8,-8.1 1.8,-16.1 2.8,-24.1 3,-48 -6,-96 9.4,-141.9 2.5,-6.2 5.7,-12.1 9.5,-17.7 3.8,-5.6 8.4,-10.9 13.7,-15.8 5.2,-4 7.3,-13.4 8.8,-20.7 2.3,-11.8 2.9,-23.9 4.2,-35.9 2.8,0.4 5.6,0.7 8.4,1.1 v 28.2 c 0,27.2 -0.1,54.4 -0.1,81.6 0,6.8 0,13.6 0,20.4 0.1,20.7 0.1,40.7 0,61.2 0,6.8 0,13.6 0.1,20.4 0.1,20.4 0.2,40.8 0.5,61.2 0.3,18.9 -6.9,24.3 -23.8,23.3 z m 137.9,-15.7 c 0,4.5 -5.2,9 -8,13.5 -2.5,-4.8 -7.1,-9.6 -7.2,-14.5 -0.6,-34.2 -0.3,-68.5 -0.3,-102.7 0,-32.2 -0.3,-64.4 0.3,-96.6 0.1,-5.6 4.3,-11 6.6,-16.6 3.2,5.2 9.1,10.3 9.1,15.5 0.5,67.2 0.3,134.3 -0.5,201.4 z m 66.4,14.2 c -6,0.5 -11.7,1 -20,1.7 0,-7.3 0,-13.2 0,-19.2 -0.2,-59.7 -0.6,-119.3 -0.6,-179 0,-25.6 -0.7,-51.2 1.2,-76.7 0.8,-10.9 7.4,-21.3 11.3,-32 2.7,0.8 5.5,1.7 8.2,2.5 v 302.7 z m 190.4,95.8 v 22.2 c -19.3,-5.6 -36.2,-11.4 -36.6,-32.1 -0.9,-61.6 -0.3,-123.2 -0.3,-184.4 27.3,-7.9 36.9,-1.6 36.9,23.7 0,56.9 0,113.8 0,170.6 z m 510.2,92.7 v -120.1 c 1.5,0 3,-0.1 4.6,-0.1 1.8,39.9 3.6,79.9 5.3,119.8 -3.3,0.1 -6.6,0.3 -9.9,0.4 z m 120.2,67.5 h -49.1 c 0,-8.8 0.2,-17.9 0,-27 -0.9,-43.9 -3.1,-87.7 -2,-131.5 0.4,-16.3 0.3,-32.3 -0.2,-48.4 -0.4,-12.2 12,-24.8 18.2,-36.3 33.1,13.7 30,36.7 30.3,59.7 0.6,58.1 2.8,116.3 4.3,174.4 0,2.4 -0.8,5.1 -1.5,9.1 z m 129.9,11.4 c -6.8,2.3 -11.8,-0.6 -15.5,-10.8 -2.5,-6.9 -20.1,-8.4 -32.7,-13.1 0,-54.2 0.3,-111.4 -0.3,-168.6 -0.1,-9.6 -7.9,-20.7 -5.1,-28.5 5,-13.9 15.5,-25.7 23.4,-38 29.9,13.3 34.8,24.3 29,49.8 -1.8,8 3.7,17.4 3.9,26.2 1.7,55.5 3.2,111 4,166.6 0.2,5.8 -2.9,15.2 -6.7,16.4 z m 74.5,-0.9 c -7,-11.2 -10.7,-145.4 0,-206.3 z"
   id="path1" />
</g>
</svg>
