<?xml version="1.0" encoding="UTF-8"?>
<svg version="1.0" viewBox="0 0 346.19 575.03" xmlns="http://www.w3.org/2000/svg" fill="#15803d">
 <g transform="translate(-85.219 -51.875)">
  <path d="m132.09 51.875c-8.4753 8.6118-12.719 13.712-12.719 24.438s5.0904 18.324 8.2188 21.75c3.1284 3.4263-0.0625 6.5625-0.0625 6.5625-9.2361 11.024-13.406 21.731-13.406 27.094v73.25h-5.375v-2.9375h-4.7812v18.469l8.0625 8.9375v72.719h-10.125v-2.6875h-5.9375v17.688l13.375 23.125v89.094c0 10.428 0.00248 20.27-5.0625 27.719-5.065 7.4485-5.6875 18.875-5.6875 18.875v45.844c-1.0208 0.4459-2.0689 0.75542-2.75 0.5-1.6854-0.63203-0.60498-3.5857-3.3438-3.375-2.7388 0.21067-7.2812 5.1875-7.2812 5.1875v102.78h346.19v-79.25h-3.2812s1e-5 -10.72 0-19.062c0-8.3423-9.5313-9.25-9.5312-9.25h-30.219c0.8646-0.82986 17.344-16.997 17.344-43.781 0-27.5-11.804-40.335-25.375-53.906-6.8703-6.8703-18.866-17.492-35-28.031-15.343-10.023-37.867-18.954-45.031-26.75v-22.375c8.6497-1.4513 12.125-6.8164 12.125-13.281 1e-5 -9.7964-12.438-12.969-12.438-12.969 1e-5 -1e-5 7.375 3.5906 7.375 11.281 0 3.1601-2.4137 7.5938-12 7.5938-9.5857-1e-5 -12.031-4.4336-12.031-7.5938 0-7.0588 7.5-11.156 7.5-11.156 0 1e-5 -12.531 3.027-12.531 12.844-1e-5 6.6042 3.67 12.067 12.688 13.375v22.438c-7.3136 7.7598-29.662 16.636-44.906 26.594-16.134 10.539-28.161 21.161-35.031 28.031-13.571 13.571-25.344 26.406-25.344 53.906 0 24.922 14.243 40.626 16.938 43.375h-37.031v-42.969c0-1e-5 -0.62253-11.426-5.6875-18.875-5.065-7.4485-5.0625-17.291-5.0625-27.719v-89.094l13.344-23.125v-17.688h-5.9062v2.6875h-10.125v-72.719l8.0312-8.9375v-18.469h-4.75v2.9375h-5.375c-1e-5 0 0-67.887 0-73.25-1e-5 -5.3629-4.1701-16.07-13.406-27.094 1e-5 0-3.1909-3.1362-0.0625-6.5625s8.1875-11.024 8.1875-21.75c1e-5 -10.726-4.2435-15.235-12.719-24.438zm-15.156 118.72h2.7188v34.125h-2.7188v-34.125zm10.719 0h7.6875v34.125h-7.6875v-34.125zm15.719 0h2.7188v34.125h-2.7188v-34.125z" fill-rule="evenodd"/>
 </g>
</svg>
