<?xml version="1.0" encoding="UTF-8" standalone="no"?>
<!-- Creator: CorelDRAW 2018 (64-Bit) -->

<svg
   xml:space="preserve"
   width="35.560001cm"
   height="21.59cm"
   version="1.1"
   style="clip-rule:evenodd;fill-rule:evenodd;image-rendering:optimizeQuality;shape-rendering:geometricPrecision;text-rendering:geometricPrecision"
   viewBox="0 0 14000.001 8500.0001"
   fill="#fff"
   id="svg8"
   xmlns="http://www.w3.org/2000/svg"
   xmlns:svg="http://www.w3.org/2000/svg">
 <defs
   id="defs1">
  <style
   type="text/css"
   id="style1">
   <![CDATA[
    .fil0 {fill:none}
    .fil1 {fill:black}
    .fil2 {fill:black}
   ]]>
  </style>
 </defs>
 <g
   id="Layer_x0020_1">
  <metadata
   id="CorelCorpID_0Corel-Layer" />
  <rect
   class="fil0"
   width="20000"
   height="20000"
   id="rect1"
   x="0"
   y="0" />
  
  
  
  
  
  
  
  
  
  
  
  
  <g
   id="g1"
   transform="matrix(0.74937425,0,0,0.74937425,-429.90106,-2292.3347)"><path
     class="fil1"
     d="m 1857.16,9784.32 h 16133.33 v 3645.23 h -5268.58 v -2011.11 c 0,-212.45 -173.81,-386.26 -386.26,-386.26 v 0 c -213.9,0 -388.91,175 -388.91,388.91 v 2008.47 h -1284.39 v -2455.04 c 0,-404.8 -331.2,-735.99 -735.99,-735.99 -407.57,0 -741.04,333.46 -741.04,741.03 v 2450 H 7995.35 v -2011.11 c 0,-212.45 -173.82,-386.26 -386.26,-386.26 v 0 c -213.9,0 -388.91,175 -388.91,388.91 v 2008.47 h -5363 V 9784.34 Z m 8069.19,454.2 z"
     id="path1"
     style="fill:#fff" /><path
     class="fil1"
     d="m 9923.83,5806.34 v 0 c 1175.06,0 2136.46,961.41 2136.46,2136.46 v 472.67 H 7787.36 V 7942.8 c 0,-1175.06 961.41,-2136.46 2136.46,-2136.46 z"
     id="path2"
     style="fill:#fff" /><rect
     class="fil1"
     x="7492.4199"
     y="8566.7305"
     width="4862.8198"
     height="491.57999"
     id="rect2"
     style="fill:#fff" /><rect
     class="fil1"
     x="9848.2002"
     y="5204.0298"
     width="151.25"
     height="724.22998"
     id="rect3"
     style="fill:#fff" /><path
     class="fil2"
     d="m 9833.35,3484.12 c -478.96,140.72 -753.15,643.06 -612.44,1122.02 140.72,478.96 643.06,753.16 1122.02,612.44 39.5,-11.61 77.57,-25.72 114.17,-42.02 -439.52,65.9 -871.33,-200.89 -1000.14,-639.31 -129.11,-439.46 91.11,-898.56 498.28,-1079.99 -40.64,6.09 -81.34,14.96 -121.87,26.87 z"
     id="path3"
     style="fill:#fff" /><path
     class="fil1"
     d="m 15123.01,8033.07 v 0 c 578.48,0 1051.78,473.3 1051.78,1051.79 v 232.7 h -2103.57 v -232.7 c 0,-578.48 473.3,-1051.79 1051.79,-1051.79 z"
     id="path4"
     style="fill:#fff" /><rect
     class="fil1"
     x="13926.01"
     y="9392.0195"
     width="2393.99"
     height="242.00999"
     id="rect4"
     style="fill:#fff" /><path
     class="fil1"
     d="m 4855.93,8026.65 v 0 c 578.48,0 1051.78,473.3 1051.78,1051.79 v 232.7 H 3804.14 v -232.7 c 0,-578.48 473.3,-1051.79 1051.79,-1051.79 z"
     id="path5"
     style="fill:#fff" /><rect
     class="fil1"
     x="3658.9299"
     y="9385.5996"
     width="2393.99"
     height="242.00999"
     id="rect5"
     style="fill:#fff" /><rect
     class="fil1"
     x="7163.8301"
     y="9270.6904"
     width="5520"
     height="853.33002"
     id="rect6"
     style="fill:#fff" /><rect
     class="fil1"
     x="1090.49"
     y="13537.36"
     width="17666.67"
     height="333.32999"
     id="rect7"
     style="fill:#fff" /><rect
     class="fil1"
     x="560.97998"
     y="14057.36"
     width="18725.68"
     height="333.32999"
     id="rect8"
     style="fill:#fff" /><polygon
     class="fil2"
     points="10054.19,4264.78 9962.15,3979.67 9870.12,4264.78 9570.54,4264.2 9813.24,4439.83 9720.12,4724.57 9962.15,4548.02 10204.19,4724.57 10111.06,4439.83 10353.77,4264.2 "
     id="polygon8"
     style="fill:#fff" /></g>
 </g>
</svg>
